<?xml version="1.0" encoding="UTF-8"?>
<svg width="256" height="256" viewBox="0 0 256 256" xmlns="http://www.w3.org/2000/svg">
  <defs>
    <linearGradient id="leather" x1="0" y1="0" x2="0" y2="1">
      <stop offset="0%" stop-color="#ff5a5a"/>
      <stop offset="100%" stop-color="#b01616"/>
    </linearGradient>
    <linearGradient id="dark" x1="0" y1="0" x2="0" y2="1">
      <stop offset="0%" stop-color="#3a0e0e"/>
      <stop offset="100%" stop-color="#1c0606"/>
    </linearGradient>
    <linearGradient id="metal" x1="0" y1="0" x2="0" y2="1">
      <stop offset="0%" stop-color="#ececec"/>
      <stop offset="100%" stop-color="#a9a9a9"/>
    </linearGradient>
    <filter id="shadow2" x="-20%" y="-20%" width="140%" height="140%">
      <feDropShadow dx="0" dy="2" stdDeviation="2" flood-opacity="0.25"/>
    </filter>
  </defs>

  <!-- Sombra al pie -->
  <ellipse cx="128" cy="226" rx="60" ry="14" fill="#000" opacity="0.12"/>

  <!-- Capucha -->
  <path d="M84,60 C84,36 108,24 128,24 C148,24 172,36 172,60 L172,90 L84,90 Z"
        fill="url(#dark)" filter="url(#shadow2)"/>

  <!-- Cabeza/antifaz -->
  <g filter="url(#shadow2)">
    <circle cx="128" cy="92" r="26" fill="#f1c8a7"/>
    <rect x="104" y="86" width="48" height="12" rx="6" fill="#2a0b0b"/>
    <circle cx="118" cy="92" r="4" fill="#fff" opacity="0.8"/>
    <circle cx="138" cy="92" r="4" fill="#fff" opacity="0.8"/>
  </g>

  <!-- Pecho/chaqueta -->
  <g filter="url(#shadow2)">
    <rect x="88" y="112" width="80" height="84" rx="14" fill="url(#leather)"/>
    <rect x="88" y="150" width="80" height="10" fill="#6b1010" opacity="0.6"/>
    <!-- hombreras oscuras -->
    <circle cx="88" cy="126" r="16" fill="url(#dark)"/>
    <circle cx="168" cy="126" r="16" fill="url(#dark)"/>
  </g>

  <!-- Brazos -->
  <g filter="url(#shadow2)">
    <rect x="68" y="132" width="18" height="42" rx="8" fill="#6b1010"/>
    <rect x="170" y="132" width="18" height="42" rx="8" fill="#6b1010"/>
  </g>

  <!-- Piernas -->
  <g filter="url(#shadow2)">
    <rect x="106" y="188" width="16" height="32" rx="6" fill="#6b1010"/>
    <rect x="134" y="188" width="16" height="32" rx="6" fill="#6b1010"/>
  </g>

  <!-- Hacha -->
  <g transform="translate(178,118)" filter="url(#shadow2)">
    <rect x="-6" y="-18" width="12" height="60" rx="4" fill="#835b38"/>
    <path d="M6,-18 C34,-10 34,16 6,24 L6,14 C20,10 20,-6 6,-10 Z" fill="url(#metal)"/>
  </g>
</svg>
