<?xml version="1.0" encoding="UTF-8"?>
<svg width="256" height="256" viewBox="0 0 256 256" xmlns="http://www.w3.org/2000/svg">
  <defs>
    <linearGradient id="armor" x1="0" y1="0" x2="0" y2="1">
      <stop offset="0%" stop-color="#4a78ff"/>
      <stop offset="100%" stop-color="#2748b8"/>
    </linearGradient>
    <linearGradient id="steel" x1="0" y1="0" x2="0" y2="1">
      <stop offset="0%" stop-color="#e6eefc"/>
      <stop offset="100%" stop-color="#9fb3d9"/>
    </linearGradient>
    <linearGradient id="cloth" x1="0" y1="0" x2="0" y2="1">
      <stop offset="0%" stop-color="#ffd86b"/>
      <stop offset="100%" stop-color="#d7a52a"/>
    </linearGradient>
    <filter id="shadow" x="-20%" y="-20%" width="140%" height="140%">
      <feDropShadow dx="0" dy="2" stdDeviation="2" flood-opacity="0.25"/>
    </filter>
  </defs>

  <!-- Sombra al pie -->
  <ellipse cx="128" cy="226" rx="60" ry="14" fill="#000" opacity="0.12"/>

  <!-- Capa trasera (capa/pañuelo) -->
  <path d="M60,120 C50,160 72,188 106,204 L150,204 C184,188 206,160 196,120 L160,110 L96,110 Z"
        fill="url(#cloth)" filter="url(#shadow)"/>

  <!-- Cuerpo/armadura -->
  <g filter="url(#shadow)">
    <rect x="90" y="96" width="76" height="82" rx="14" fill="url(#armor)"/>
    <!-- hombreras -->
    <circle cx="90" cy="112" r="16" fill="url(#steel)"/>
    <circle cx="166" cy="112" r="16" fill="url(#steel)"/>
    <!-- cinturón -->
    <rect x="90" y="150" width="76" height="10" fill="#1e2f6d" opacity="0.6"/>
  </g>

  <!-- Cabeza/casco -->
  <g filter="url(#shadow)">
    <circle cx="128" cy="72" r="28" fill="url(#steel)"/>
    <!-- visera -->
    <rect x="104" y="66" width="48" height="12" rx="6" fill="#2b3f73"/>
    <!-- penacho -->
    <path d="M128,42 Q136,28 160,26 Q140,32 148,46 Q132,40 128,42 Z" fill="#ff6b6b"/>
  </g>

  <!-- Brazos -->
  <g fill="url(#steel)" filter="url(#shadow)">
    <rect x="70" y="122" width="18" height="44" rx="8"/>
    <rect x="168" y="122" width="18" height="44" rx="8"/>
  </g>

  <!-- Piernas/grebas -->
  <g filter="url(#shadow)">
    <rect x="104" y="178" width="16" height="36" rx="6" fill="url(#steel)"/>
    <rect x="136" y="178" width="16" height="36" rx="6" fill="url(#steel)"/>
  </g>

  <!-- Espada (mano derecha) -->
  <g transform="translate(176,108)" filter="url(#shadow)">
    <rect x="-6" y="-40" width="12" height="40" rx="4" fill="#c4d3eb"/>
    <rect x="-10" y="-50" width="20" height="10" rx="5" fill="#3a4e7e"/>
    <rect x="-3" y="-92" width="6" height="42" fill="#cfd8e6"/>
    <path d="M0,-92 L10,-134 L0,-140 L-10,-134 Z" fill="#e9f0fb"/>
  </g>

  <!-- Detalles -->
  <circle cx="128" cy="72" r="4" fill="#fff" opacity="0.7"/>
</svg>
